<?xml version="1.0" encoding="UTF-8"?>
<svg version="1.1" viewBox="0 0 89.6 144" xmlns="http://www.w3.org/2000/svg" xmlns:cc="http://creativecommons.org/ns#" xmlns:dc="http://purl.org/dc/elements/1.1/" xmlns:rdf="http://www.w3.org/1999/02/22-rdf-syntax-ns#">
  <title>The Three Spires</title>
  <g>
    <path d="m54.823 142.76c0.10066-0.50332 0.28122-1.6553 0.40123-2.56l0.2182-1.6449h-27.561c-18.161 0-27.561-0.10914-27.561-0.32 0-0.2109 9.5551-0.32 28.025-0.32h28.025l-0.1683 0.88c-0.09256 0.484-0.25852 1.528-0.3688 2.32-0.27947 2.0071-0.4642 2.56-0.85532 2.56-0.20169 0-0.26448-0.36977-0.15541-0.91513z" fill="#00f"/>
    <path d="m54.823 142.76c0.10066-0.50332 0.28122-1.6553 0.40123-2.56l0.2182-1.6449h-27.561c-18.161 0-27.561-0.10914-27.561-0.32 0-0.2109 9.5551-0.32 28.025-0.32h28.025l-0.1683 0.88c-0.09256 0.484-0.25852 1.528-0.3688 2.32-0.27947 2.0071-0.4642 2.56-0.85532 2.56-0.20169 0-0.26448-0.36977-0.15541-0.91513zm30.822 0.35513c-0.087-0.308-0.24842-1.208-0.3587-2-0.11028-0.792-0.27624-1.836-0.3688-2.32l-0.1683-0.88h2.2654c1.297 0 2.2654 0.1368 2.2654 0.32 0 0.176-0.81055 0.32-1.8012 0.32h-1.8012l0.2182 1.6449c0.12001 0.90468 0.30056 2.0567 0.40123 2.56 0.19853 0.99267-0.38254 1.3092-0.65203 0.35513zm-85.325-6.7731c0-0.40907 2.8599-5.3121 6.3833-10.944l6.3833-10.203 4.2983-57.295c2.364-31.512 4.3875-57.385 4.4967-57.494 0.10912-0.10912 0.26576-0.13103 0.3481-0.048691 0.082338 0.082338-1.7973 26.099-4.1769 57.814l-4.3266 57.664-6.4329 10.319c-3.5381 5.6756-6.5545 10.456-6.7031 10.623-0.15669 0.17628-0.27023-0.00738-0.27023-0.4371zm84.887-16.389c-2.1519-3.4468-3.9837-6.4674-4.0707-6.7125-0.087002-0.24506-2.3979-15.278-5.1353-33.406-5.3959-35.733-5.3009-35.127-5.4817-34.946-0.06791 0.06791-1.4158 8.6786-2.9953 19.135-3.4736 22.996-3.143 21.091-3.6622 21.091-0.23582 0-3.8505-5.4795-8.0327-12.177-4.1822-6.6972-7.7051-12.061-7.8286-11.92-0.12356 0.14123-4.1518 6.5568-8.9515 14.257-4.7998 7.7-8.9254 14-9.1681 14s-0.44593-0.036-0.45166-0.08c-0.24377-1.8711-6.6346-88.742-6.5358-88.84 0.08042-0.080416 0.23783-0.054595 0.3498 0.057379 0.11198 0.11197 1.6664 19.714 3.4542 43.561 1.7878 23.847 3.3274 43.434 3.4213 43.528 0.0939 0.0939 4.0368-6.0205 8.762-13.588 7.1143-11.393 8.7129-13.758 9.2989-13.758 0.58404 0 1.9811 2.0398 7.9997 11.68 4.0107 6.424 7.375 11.68 7.4762 11.679 0.10127-3.2e-4 1.3906-8.0285 2.8651-17.84 3.5404-23.558 3.1579-21.519 4.0376-21.519 0.57197 0 0.77087 0.22535 0.9179 1.04 0.10324 0.572 2.4274 15.872 5.1649 34 2.7374 18.128 5.05 33.165 5.1391 33.415 0.08908 0.25047 1.8214 3.1064 3.8495 6.3466 2.3463 3.7483 3.6516 6.1407 3.5888 6.5771-0.0705 0.48954-1.2189-1.1082-4.0113-5.581z" fill="#000000" stroke-width=".32"/>
    <path d="m21.933 0.51674 1.2313 0.014778" fill="#00f"/>
    <g fill="#000000">
      <path d="m21.933 0.51674 1.2313 0.014778"/>
      <path d="m21.88 0.37759c0.73231-0.48241 0.6958-0.57184 1.3141 0.023754" stroke-width="1.3098"/>
      <g stroke="#000000" stroke-linecap="round" stroke-width=".6">
        <path d="m88.921 125.29 0.14754 12.81"/>
        <path d="m0.5991 136.43-0.033047 1.843"/>
        <path d="m55.029 143.4s30.824-4e-3 30.824-4e-3"/>
        <path d="m23.164 0.53151-0.56155-0.40755-0.66976 0.39277-8.4475 114.38-0.28124 1.0741-12.605 20.456-0.033047 1.843 55.42-0.0724-0.95687 5.2009 30.824-4e-3 -0.60713-5.2071 3.8222-0.0945-0.14754-12.81-7.4017-12.186-10.578-68.494-0.68125-0.10732-6.3595 39.727-15.796-23.606-18.252 27.963-6.6888-88.05"/>
      </g>
    </g>
  </g>
  <metadata>
    <rdf:RDF>
      <cc:Work rdf:about="">
        <dc:title>The Three Spires</dc:title>
        <dc:date>2024-06-24</dc:date>
        <dc:creator>
          <cc:Agent>
            <dc:title>James Silver</dc:title>
          </cc:Agent>
        </dc:creator>
        <dc:publisher>
          <cc:Agent>
            <dc:title>Three Spires Software Ltd</dc:title>
          </cc:Agent>
        </dc:publisher>
      </cc:Work>
    </rdf:RDF>
  </metadata>
</svg>
